<mxfile host="app.diagrams.net" agent="Mozilla/5.0 (Windows NT 10.0; Win64; x64) AppleWebKit/537.36 (KHTML, like Gecko) Chrome/131.0.0.0 Safari/537.36 Edg/131.0.0.0" version="25.0.1">
  <diagram name="第 1 页" id="9HaCeSWViiEG6CT7QD3R">
    <mxGraphModel dx="944" dy="997" grid="1" gridSize="10" guides="1" tooltips="1" connect="1" arrows="1" fold="1" page="1" pageScale="1" pageWidth="827" pageHeight="1169" math="0" shadow="0">
      <root>
        <mxCell id="0" />
        <mxCell id="1" parent="0" />
        <mxCell id="CnSP8RVHgEIhohffJWDQ-1" value="" style="shape=curlyBracket;whiteSpace=wrap;html=1;rounded=1;labelPosition=left;verticalLabelPosition=middle;align=right;verticalAlign=middle;" parent="1" vertex="1">
          <mxGeometry x="330" y="240" width="20" height="80" as="geometry" />
        </mxCell>
        <mxCell id="CnSP8RVHgEIhohffJWDQ-2" value="&lt;font size=&quot;1&quot; style=&quot;&quot;&gt;&lt;b style=&quot;font-size: 18px;&quot;&gt;Pytorch&lt;/b&gt;&lt;/font&gt;" style="text;html=1;align=center;verticalAlign=middle;whiteSpace=wrap;rounded=0;" parent="1" vertex="1">
          <mxGeometry x="250" y="265" width="60" height="30" as="geometry" />
        </mxCell>
        <mxCell id="CnSP8RVHgEIhohffJWDQ-3" value="&lt;font style=&quot;font-size: 16px;&quot;&gt;输入张量&lt;/font&gt;" style="text;html=1;align=center;verticalAlign=middle;whiteSpace=wrap;rounded=0;" parent="1" vertex="1">
          <mxGeometry x="354" y="230" width="76" height="30" as="geometry" />
        </mxCell>
        <mxCell id="CnSP8RVHgEIhohffJWDQ-4" value="&lt;font style=&quot;font-size: 16px;&quot;&gt;中间张量&lt;/font&gt;" style="text;html=1;align=center;verticalAlign=middle;whiteSpace=wrap;rounded=0;" parent="1" vertex="1">
          <mxGeometry x="359" y="295" width="66" height="30" as="geometry" />
        </mxCell>
        <mxCell id="CnSP8RVHgEIhohffJWDQ-5" value="" style="endArrow=none;html=1;rounded=0;" parent="1" edge="1">
          <mxGeometry width="50" height="50" relative="1" as="geometry">
            <mxPoint x="430" y="309.71" as="sourcePoint" />
            <mxPoint x="460" y="309.71" as="targetPoint" />
          </mxGeometry>
        </mxCell>
        <mxCell id="CnSP8RVHgEIhohffJWDQ-6" value="&lt;font style=&quot;font-size: 16px;&quot;&gt;不同的Layers中占用不同的显存&lt;/font&gt;" style="text;html=1;align=center;verticalAlign=middle;whiteSpace=wrap;rounded=0;" parent="1" vertex="1">
          <mxGeometry x="485" y="295" width="130" height="30" as="geometry" />
        </mxCell>
        <mxCell id="CnSP8RVHgEIhohffJWDQ-7" value="" style="endArrow=none;html=1;rounded=0;" parent="1" edge="1">
          <mxGeometry width="50" height="50" relative="1" as="geometry">
            <mxPoint x="430" y="249.70999999999998" as="sourcePoint" />
            <mxPoint x="460" y="249.70999999999998" as="targetPoint" />
          </mxGeometry>
        </mxCell>
        <mxCell id="CnSP8RVHgEIhohffJWDQ-8" value="&lt;span style=&quot;font-size: 16px;&quot;&gt;大小固定&lt;br&gt;节点特征的组合和填充&lt;/span&gt;" style="text;html=1;align=center;verticalAlign=middle;whiteSpace=wrap;rounded=0;" parent="1" vertex="1">
          <mxGeometry x="460" y="235" width="180" height="30" as="geometry" />
        </mxCell>
        <mxCell id="CnSP8RVHgEIhohffJWDQ-9" value="" style="shape=curlyBracket;whiteSpace=wrap;html=1;rounded=1;labelPosition=left;verticalLabelPosition=middle;align=right;verticalAlign=middle;" parent="1" vertex="1">
          <mxGeometry x="330" y="390" width="20" height="80" as="geometry" />
        </mxCell>
        <mxCell id="CnSP8RVHgEIhohffJWDQ-10" value="&lt;font size=&quot;1&quot; style=&quot;&quot;&gt;&lt;b style=&quot;font-size: 18px;&quot;&gt;DGL&lt;/b&gt;&lt;/font&gt;" style="text;html=1;align=center;verticalAlign=middle;whiteSpace=wrap;rounded=0;" parent="1" vertex="1">
          <mxGeometry x="250" y="415" width="60" height="30" as="geometry" />
        </mxCell>
        <mxCell id="CnSP8RVHgEIhohffJWDQ-11" value="&lt;font style=&quot;font-size: 16px;&quot;&gt;图&lt;/font&gt;" style="text;html=1;align=center;verticalAlign=middle;whiteSpace=wrap;rounded=0;" parent="1" vertex="1">
          <mxGeometry x="354" y="380" width="36" height="30" as="geometry" />
        </mxCell>
        <mxCell id="CnSP8RVHgEIhohffJWDQ-16" value="&lt;span style=&quot;font-size: 16px;&quot;&gt;邻接矩阵（CSR）&lt;/span&gt;" style="text;html=1;align=center;verticalAlign=middle;whiteSpace=wrap;rounded=0;" parent="1" vertex="1">
          <mxGeometry x="414" y="360" width="135" height="30" as="geometry" />
        </mxCell>
        <mxCell id="CnSP8RVHgEIhohffJWDQ-17" value="" style="shape=curlyBracket;whiteSpace=wrap;html=1;rounded=1;labelPosition=left;verticalLabelPosition=middle;align=right;verticalAlign=middle;" parent="1" vertex="1">
          <mxGeometry x="394" y="372.5" width="16" height="45" as="geometry" />
        </mxCell>
        <mxCell id="CnSP8RVHgEIhohffJWDQ-18" value="&lt;span style=&quot;font-size: 16px;&quot;&gt;特征矩阵（SSD中）&lt;/span&gt;" style="text;html=1;align=center;verticalAlign=middle;whiteSpace=wrap;rounded=0;" parent="1" vertex="1">
          <mxGeometry x="414" y="400" width="156" height="30" as="geometry" />
        </mxCell>
        <mxCell id="CnSP8RVHgEIhohffJWDQ-19" value="&lt;font style=&quot;font-size: 16px;&quot;&gt;子图&lt;/font&gt;" style="text;html=1;align=center;verticalAlign=middle;whiteSpace=wrap;rounded=0;" parent="1" vertex="1">
          <mxGeometry x="354" y="460" width="36" height="30" as="geometry" />
        </mxCell>
        <mxCell id="CnSP8RVHgEIhohffJWDQ-20" value="" style="shape=curlyBracket;whiteSpace=wrap;html=1;rounded=1;labelPosition=left;verticalLabelPosition=middle;align=right;verticalAlign=middle;" parent="1" vertex="1">
          <mxGeometry x="394" y="452.5" width="16" height="45" as="geometry" />
        </mxCell>
        <mxCell id="CnSP8RVHgEIhohffJWDQ-21" value="&lt;span style=&quot;font-size: 16px;&quot;&gt;采样（子图划分）&lt;/span&gt;" style="text;html=1;align=center;verticalAlign=middle;whiteSpace=wrap;rounded=0;" parent="1" vertex="1">
          <mxGeometry x="414" y="440" width="146" height="30" as="geometry" />
        </mxCell>
        <mxCell id="CnSP8RVHgEIhohffJWDQ-22" value="&lt;span style=&quot;font-size: 16px;&quot;&gt;聚合（子图合并）&lt;/span&gt;" style="text;html=1;align=center;verticalAlign=middle;whiteSpace=wrap;rounded=0;" parent="1" vertex="1">
          <mxGeometry x="410" y="480" width="156" height="30" as="geometry" />
        </mxCell>
      </root>
    </mxGraphModel>
  </diagram>
</mxfile>
